<?xml version="1.0" ?><svg height="256" viewBox="0 0 256 256" width="256" xmlns="http://www.w3.org/2000/svg"><defs><style>
      .cls-1 {
        fill: #d2d2d2;
      }

      .cls-2 {
        fill: #4048e9;
      }

      .cls-2, .cls-3 {
        fill-rule: evenodd;
      }

      .cls-3 {
        fill: #3b6ef9;
      }
    </style></defs><g data-name="OmiceGo omg omgcoin crypto coin" id="OmiceGo_omg_omgcoin_crypto_coin"><g data-name="OmiceGo omg" id="OmiceGo_omg"><circle class="cls-1" cx="128" cy="128" data-name="Эллипс 19" id="Эллипс_19" r="128"/><path class="cls-2" d="M279.845,1646A71,71,0,1,1,209,1717,70.924,70.924,0,0,1,279.845,1646Zm-38.278,68.18c7.5-7.51,27.919-27.98,35.444-35.52a3.85,3.85,0,0,1,5.668,0s26.567,26.63,35.422,35.5c2.906,2.91-.044,5.72-0.044,5.72s-26.485,26.55-35.356,35.44c-2.928,2.93-5.756-.05-5.756-0.05l-35.356-35.43S238.686,1717.07,241.567,1714.18Z" data-name="Эллипс 18" id="Эллипс_18" transform="translate(-152 -1589)"/><path class="cls-3" d="M279.845,1646A71,71,0,1,1,209,1717,70.924,70.924,0,0,1,279.845,1646Zm-38.278,68.18c7.5-7.51,27.919-27.98,35.444-35.52,15.881-15.38,33.3-29.29,43.924-19.88,0.859,0.76,21.947,16.4,28.338,41.18,4.985,19.33-1.3,49.16-12.752,59.64,12.448-21.64-15.586-42.6-15.586-42.6s-35.219,36.2-51.008,49.7c-16.193,13.85-27.366,14.65-34.006,8.52-3.046-2.81-15.586-14.2-15.586-14.2s-5.845-16.86,5.668-29.82C234.092,1722.1,238.686,1717.07,241.567,1714.18Z" data-name="Эллипс 18 копия" id="Эллипс_18_копия" transform="translate(-152 -1589)"/></g></g></svg>